<svg xmlns="http://www.w3.org/2000/svg" viewBox="0 0 32 32" role="img" aria-label="Sveltinia logo">
  <defs>
    <linearGradient id="forest" x1="7" y1="7" x2="25" y2="25" gradientUnits="userSpaceOnUse">
      <stop stop-color="#3f693a"/>
      <stop offset="1" stop-color="#3e5a23"/>
    </linearGradient>
  </defs>
  <rect width="32" height="32" rx="8" fill="#090c09"/>
  <path fill="url(#forest)" d="M24.8 8.8C21.5 6.5 12.1 6.2 8.6 9.1c-3.5 2.9-2 7.1 2.6 8.2l7.5 1.8c1.4.3 1.5 1.4.5 2.1-1.9 1.3-7.6.7-11-1.1l-2 3.6c4.5 2.6 13.1 3 17.4-.4 3.7-2.9 2-7.4-2.6-8.4l-7.4-1.7c-1.3-.3-1.4-1.3-.5-2 1.7-1.3 6.5-1 9.6.7z"/>
  <path d="M21.8 6.7c2.2-.8 3.7-.4 4.7.1-.6 2.1-1.7 3.4-3.8 4.1.2-1.7-.1-2.9-.9-4.2Z" fill="#172113"/>
</svg>
